<?xml version="1.0" encoding="utf-8"?>
<!-- Generator: Adobe Illustrator 15.0.0, SVG Export Plug-In . SVG Version: 6.00 Build 0)  -->
<!DOCTYPE svg PUBLIC "-//W3C//DTD SVG 1.1//EN" "http://www.w3.org/Graphics/SVG/1.1/DTD/svg11.dtd">
<svg version="1.1" id="Livello_1" xmlns="http://www.w3.org/2000/svg" xmlns:xlink="http://www.w3.org/1999/xlink" x="0px" y="0px"
	 width="512px" height="512px" viewBox="0 0 512 512" enable-background="new 0 0 512 512" xml:space="preserve">
<path fill="#FFFFFF" d="M207.703,43.848v84.344v0.039v0.039v96.879c0,28.949,23.551,52.5,52.5,52.5
	c28.945,0,52.496-23.551,52.496-52.5V43.695c3.125-1.102,5.996-2.875,8.41-5.285c4.25-4.25,6.59-9.898,6.59-15.91
	c0-0.391-0.012-0.73-0.023-1.063c-0.277-5.887-2.848-11.348-7.25-15.359C316.148,2.16,310.59,0,304.777,0h-89.996
	c-6.008,0-11.66,2.34-15.91,6.59s-6.59,9.898-6.59,15.91s2.34,11.66,6.59,15.91C201.395,40.934,204.414,42.762,207.703,43.848z
	 M214.781,15h90.008c2.02,0,4.027,0.777,5.508,2.141c1.473,1.359,2.301,3.09,2.391,4.988l0.012,0.051v0.32
	c-0.012,4.129-3.371,7.488-7.5,7.5h-29.188c-4.133,0-7.5,3.371-7.5,7.5c0,4.141,3.367,7.5,7.5,7.5h21.691v75.73h-52.5
	c-4.133,0-7.5,3.367-7.5,7.5c0,4.141,3.367,7.5,7.5,7.5h52.5v89.418c0,20.676-16.824,37.5-37.5,37.5s-37.5-16.824-37.5-37.5V45
	h23.289c4.129,0,7.5-3.359,7.5-7.5c0-4.129-3.359-7.488-7.48-7.5c-0.082-0.02-0.16,0-0.242,0c-14.039,0-14.367,0-30.988,0
	c-4.129-0.012-7.488-3.371-7.5-7.5C207.293,18.371,210.652,15.012,214.781,15z"/>
<path fill="#FFFFFF" d="M505.16,425.676l-69.039-119.168c-3.051-5.266-5.727-26.594-5.727-36.691v-51.367
	c10.043-2.254,17.574-11.234,17.574-21.949c0-0.359-0.008-0.723-0.027-1.078C447.395,183.781,437.551,175,425.043,175h-76.715
	c-12.828,0-22.5,9.242-22.5,21.5c0,10.715,7.527,19.695,17.57,21.949v51.367c0,10.098-2.676,31.426-5.723,36.688l-69.039,119.172
	C246.426,464.012,274.051,512,318.387,512h137.02C499.711,512,527.387,464.043,505.16,425.676z M455.406,497h-137.02
	c-32.746,0-53.199-35.449-36.773-63.805l69.039-119.172c5.891-10.168,7.746-37.406,7.746-44.207V219h19.895
	c4.141,0,7.5-3.355,7.5-7.5s-3.355-7.5-7.5-7.5h-29.965c-4.137,0-7.5-3.363-7.5-7.5c0-4.465,3.887-6.5,7.5-6.5h76.715
	c3.676,0,7.719,1.918,7.918,6.137c0.004,0.121,0.008,0.242,0.008,0.363c0,4.137-3.363,7.5-7.5,7.5h-17.215
	c-4.145,0-7.5,3.355-7.5,7.5s3.355,7.5,7.5,7.5h7.141v50.816c0,6.801,1.855,34.039,7.75,44.207l69.035,119.172
	C508.598,461.531,488.18,497,455.406,497z"/>
<path fill="#FFFFFF" d="M444.402,380.449c-2.078-3.586-6.672-4.805-10.25-2.727c-3.586,2.078-4.805,6.664-2.727,10.25l33.898,58.465
	c5.215,9-1.266,20.273-11.68,20.273H320.148c-10.402,0-16.898-11.266-11.676-20.273l31.73-54.727h72.711c4.141,0,7.5-3.359,7.5-7.5
	c0-4.145-3.359-7.5-7.5-7.5h-77.031c-2.676,0-5.148,1.422-6.488,3.734l-33.898,58.469c-11.02,19,2.676,42.797,24.652,42.797h133.496
	c21.961,0,35.68-23.781,24.656-42.797L444.402,380.449z"/>
<path fill="#FFFFFF" d="M374.402,408.508c0,4.141-3.359,7.5-7.5,7.5c-4.145,0-7.5-3.359-7.5-7.5c0-4.145,3.355-7.5,7.5-7.5
	C371.043,401.008,374.402,404.363,374.402,408.508z"/>
<path fill="#FFFFFF" d="M419.398,433.508c0,4.141-3.355,7.5-7.5,7.5c-4.141,0-7.5-3.359-7.5-7.5c0-4.145,3.359-7.5,7.5-7.5
	C416.043,426.008,419.398,429.363,419.398,433.508z"/>
<path fill="#FFFFFF" d="M384.398,448.508c0,4.141-3.355,7.5-7.5,7.5c-4.141,0-7.5-3.359-7.5-7.5c0-4.145,3.359-7.5,7.5-7.5
	C381.043,441.008,384.398,444.363,384.398,448.508z"/>
<path fill="#FFFFFF" d="M176.992,254.32v-35.379c10.004-2.227,17.57-11.121,17.57-21.941c0-12.512-10.402-22.5-22.918-22.5H94.926
	c-6.012,0-11.66,2.34-15.91,6.59s-6.59,9.898-6.59,15.91s2.34,11.66,6.59,15.91c3.059,3.059,6.852,5.109,10.973,6.027l-0.039,35.398
	C36.746,272.844,1,323.141,1,379.496C0.996,452.574,60.395,512,133.492,512h0.434c72.82-0.23,132.063-59.672,132.063-132.5
	C265.988,323.148,230.25,272.852,176.992,254.32z M133.875,497C69.031,497.191,15.996,444.566,16,379.496
	c0-49.977,31.699-94.582,78.879-110.996c6.051-2.105,10.117-7.801,10.117-14.176V219.5h13.277c0.082,0,0.16,0.027,0.242,0
	c4.117-0.012,7.48-3.371,7.48-7.5s-3.359-7.5-7.5-7.5h-23.57c-4.129-0.012-7.488-3.371-7.5-7.5c0.012-4.129,3.371-7.488,7.5-7.5
	h76.727c4.078,0,7.91,3.152,7.91,7.5c-0.008,4.129-3.371,7.488-7.5,7.5h-23.559c-4.129,0-7.5,3.371-7.5,7.5
	c0,4.141,3.371,7.5,7.5,7.5h0.02h13.469v34.82c0,6.375,4.074,12.078,10.133,14.188c47.172,16.414,78.863,61.02,78.863,110.992
	C250.992,444.086,198.453,496.797,133.875,497z"/>
<path fill="#FFFFFF" d="M188.492,333c-16.719,0-29.48,9.574-39.758,18.941c-3.063,2.789-3.281,7.531-0.492,10.594
	c2.789,3.066,7.531,3.285,10.594,0.492C170.551,352.355,179.145,348,188.492,348c17.438,0,33.039,14.059,32.461,34.063
	C220.137,399.262,205.891,413,188.492,413c-19.086,0-33.895-18.32-49.57-37.715C122.898,355.465,104.734,333,78.496,333
	c-12.48,0-24.266,4.805-33.188,13.527c-9.363,9.152-14.906,22.008-14.25,36.332c1.785,55.066,47.055,99.137,102.465,99.141h0.305
	c57.836-0.184,102.547-48.309,102.164-101.906C236.109,355.328,215.422,333,188.492,333z M133.777,467H133.5
	c-51.852-0.004-88.41-43.363-87.477-87.316C46.449,362.215,61.02,348,78.496,348c19.074,0,34.168,18.664,48.762,36.715
	C144.457,405.996,162.242,428,188.492,428c7.438,0,14.48-1.719,20.754-4.777C194.133,449.281,165.965,466.898,133.777,467z"/>
<path fill="#FFFFFF" d="M80.996,384.5c0,4.141-3.355,7.5-7.5,7.5c-4.141,0-7.5-3.359-7.5-7.5s3.359-7.5,7.5-7.5
	C77.641,377,80.996,380.359,80.996,384.5z"/>
<path fill="#FFFFFF" d="M125.996,409.5c0,4.141-3.359,7.5-7.5,7.5s-7.5-3.359-7.5-7.5s3.359-7.5,7.5-7.5
	S125.996,405.359,125.996,409.5z"/>
<path fill="#FFFFFF" d="M90.996,424.5c0,4.141-3.355,7.5-7.5,7.5c-4.141,0-7.5-3.359-7.5-7.5s3.359-7.5,7.5-7.5
	C87.641,417,90.996,420.359,90.996,424.5z"/>
</svg>
