<?xml version="1.0" encoding="utf-8"?>
<!-- Generator: Adobe Illustrator 15.0.0, SVG Export Plug-In . SVG Version: 6.00 Build 0)  -->
<!DOCTYPE svg PUBLIC "-//W3C//DTD SVG 1.1//EN" "http://www.w3.org/Graphics/SVG/1.1/DTD/svg11.dtd">
<svg version="1.1" id="Livello_1" xmlns="http://www.w3.org/2000/svg" xmlns:xlink="http://www.w3.org/1999/xlink" x="0px" y="0px"
	 width="512px" height="512px" viewBox="0 0 512 512" enable-background="new 0 0 512 512" xml:space="preserve">
<path fill="#BE1E2D" d="M512,41.247v-23.59C512,7.906,505.387,0,497.23,0h-44.305c-5.836,0-11.121,4.104-13.492,10.474
	c-2.375,6.37-1.391,13.808,2.512,18.991l13.719,18.221L278.398,160.704l-71.031-84.912c-4.281-5.118-10.746-6.593-16.305-3.722
	L8.91,166.232c-7.484,3.871-10.93,14.261-7.691,23.212c3.191,8.83,12.023,13.019,19.418,9.199l172.941-89.403l71.672,85.682
	c4.598,5.496,11.66,6.752,17.395,3.091L476.023,74.728l10.23,13.588c4.043,5.375,10.617,7.266,16.27,4.674
	c5.707-2.62,9.477-9.171,9.477-16.483V41.368C512,41.326,512,41.284,512,41.247z"/>
<path fill="#BCBEC0" d="M126.035,199.849V512h66.953V165.429c-0.652,0.215-1.293,0.476-1.926,0.803L126.035,199.849z"/>
<path fill="#BCBEC0" d="M319.016,512h66.953V186.283l-66.953,42.685V512z"/>
<path fill="#D1D3D4" d="M222.527,188.072V512h66.953V247.8l-11.082,7.065L222.527,188.072z"/>
<path fill="#D1D3D4" d="M0.004,276.598v217.745c0,9.75,6.613,17.657,14.77,17.657h81.723V215.118L8.91,260.394
	C3.504,263.187,0.004,269.556,0.004,276.598z"/>
<path fill="#D1D3D4" d="M504.832,120.218c-4.449-3.189-9.973-3.357-14.551-0.439l-74.77,47.672V512h81.719
	c8.16,0,14.77-7.907,14.77-17.657V135.357C512,129.156,509.277,123.408,504.832,120.218z"/>
</svg>
